<svg width="906" height="906" viewBox="0 0 906 906" fill="none" xmlns="http://www.w3.org/2000/svg">
<g clip-path="url(#clip0_1045_13)">
<path d="M906 0H0V906H906V0Z" fill="#0061AF"/>
<path d="M604.637 330.967C604.637 314.86 634.594 320.053 643.679 323.711L646.481 296.925C616.113 287.529 569.027 294.542 569.094 334.499C568.473 373.91 626.507 368.532 626.507 387.29C626.507 407.079 581.031 396.946 571.149 390.931L565.981 417.733C599.764 432.649 663.913 429.352 662.202 384.53C661.615 341.067 604.654 348.76 604.654 330.959M527.418 344.892C527.418 309.928 480.247 309.458 480.591 344.892H527.418ZM480.323 371.938C482.797 402.902 531.017 397.533 551.888 390.931L557.072 417.725C508.274 436.398 443.151 424.226 443.151 360.756C443.151 276.146 564.086 266.968 564.086 356.36C564.086 363.113 563.322 369.094 562.802 371.938H480.331H480.323ZM649.879 323.702H668.502V376.896C668.502 404.848 675.54 425.703 706.445 425.703C717.619 425.703 726.838 422.892 732.048 420.804V390.922C713.592 394.379 704.599 395.545 704.599 370.932V261.406H668.502V296.908H652.689L649.879 323.702ZM710.749 323.702H732.023L739.422 310.188L732.115 296.916H710.749V323.711V323.702ZM238.588 423.077L270.072 296.925L278.503 425.736H313.845L303.065 261.448H247.908L220.863 371.863L193.817 261.448H138.66L127.889 425.736H163.231L171.67 296.925L203.145 423.077H238.588Z" fill="white"/>
<path d="M400.251 344.901C400.251 309.936 353.08 309.466 353.424 344.901H400.251ZM353.155 371.947C355.63 402.91 403.849 397.541 424.721 390.939L429.905 417.733C381.099 436.407 315.984 424.234 315.984 360.764C315.984 276.154 436.918 266.976 436.918 356.368C436.918 363.121 436.147 369.103 435.635 371.947H353.155Z" fill="white"/>
<path d="M751.267 261.423L778.128 310.196L751.267 359.212H724.473L751.326 310.196L724.473 261.423H751.267Z" fill="white"/>
<path d="M230.057 530.539V642.656H204.269V551.687H153.659V642.656H127.872V530.539H230.057Z" fill="white"/>
<path d="M250.073 586.602C250.073 553.289 276.02 528.618 311.412 528.618C346.805 528.618 372.752 553.122 372.752 586.602C372.752 620.082 346.646 644.577 311.412 644.577C276.179 644.577 250.073 619.914 250.073 586.602ZM346.495 586.602C346.495 565.302 331.437 550.722 311.421 550.722C291.405 550.722 276.347 565.294 276.347 586.602C276.347 607.909 291.405 622.481 311.421 622.481C331.437 622.481 346.495 607.909 346.495 586.602Z" fill="white"/>
<path d="M540.765 530.539V642.656H392.776V530.539H418.564V621.516H453.965V530.539H479.744V621.516H514.985V530.539H540.765Z" fill="white"/>
<path d="M654.317 551.687H618.446V642.656H592.818V551.687H557.098V530.539H654.317V551.687Z" fill="white"/>
<path d="M740.965 618.63H688.912L678.98 642.656H652.396L702.368 530.547H727.996L778.128 642.656H750.898L740.965 618.63ZM732.795 598.933L715.019 556.007L697.243 598.933H732.795Z" fill="white"/>
</g>
<defs>
<clipPath id="clip0_1045_13">
<rect width="906" height="906" fill="white"/>
</clipPath>
</defs>
</svg>
