<svg xmlns="http://www.w3.org/2000/svg" width="250" height="250" viewBox="8 7.5 33 33" fill="none">
<path d="M27.31 34.1801V27.4401H21.58V34.1801H17.2L22.52 39.5001C23.59 40.5701 25.32 40.5701 26.39 39.5001L31.71 34.1801H27.31ZM14.33 31.3101V16.8101L9.01002 22.1301C7.94002 23.2001 7.94002 24.9301 9.01002 26.0001L14.33 31.3101ZM21.58 13.9501V20.6901H27.31V13.9501H31.69L26.37 8.63014C25.3 7.56014 23.57 7.56014 22.5 8.63014L17.18 13.9501H21.58ZM39.87 22.1301L34.55 16.8101V31.3101L39.87 26.0001C40.94 24.9301 40.94 23.2001 39.87 22.1301Z" fill="#DA292B"/></svg>