<svg xmlns="http://www.w3.org/2000/svg" width="250" height="250" viewBox="0 0 40 50"><path d="M33.67 28.8106L17.3784 25.1238C12.5225 24.0259 9.47661 19.1982 10.5745 14.3408C11.6739 9.48491 16.5016 6.43903 21.3575 7.5384C26.2133 8.63628 29.2592 13.464 28.1613 18.3214C27.6109 20.753 26.1258 22.7277 24.1704 23.9591C24.1704 23.9591 24.1645 23.9636 24.163 23.9651C24.1066 24.0066 24.068 24.0734 24.068 24.149C24.068 24.2544 24.1407 24.3434 24.2401 24.3671L31.4876 26.0065C31.6612 26.0466 31.8407 25.9798 31.9461 25.8389C31.9475 25.8374 31.9461 25.8389 31.9475 25.8374C33.943 23.1965 35.1418 19.8999 35.1418 16.3348C35.1418 7.93897 28.5812 1.07574 20.3071 0.589113C20.2329 0.584662 19.7848 0.566858 19.6335 0.565374C15.9704 0.507513 12.2569 1.55792 9.02559 3.82044C0.868642 9.53238 -1.11348 20.7753 4.59847 28.9322L19.0935 49.6332C19.1543 49.7178 19.2537 49.7727 19.3664 49.7727C19.4792 49.7727 19.5801 49.7178 19.6409 49.6317C19.6409 49.6317 33.8748 29.3328 33.8763 29.3313C33.9119 29.2764 33.9341 29.2126 33.9341 29.1414C33.9312 28.9797 33.8199 28.8447 33.67 28.8106Z" fill="#FFC629"/></svg>